<svg preserveAspectRatio="none" width="100%" height="100%" overflow="visible" style="display: block;" viewBox="0 0 13.945 13.8333" fill="none" xmlns="http://www.w3.org/2000/svg">
<path id="Icon" d="M10.6653 3.22811L11.0403 2.57859V2.57859L10.6653 3.22811ZM10.9093 4.13879L11.5588 4.51379V4.51379L10.9093 4.13879ZM13.1055 7.4984L13.755 7.1234L13.1055 7.4984ZM12.8615 8.40908L12.4865 7.75956V7.75956L12.8615 8.40908ZM1.41667 0.75V1.5H6.41667V0.75V0H1.41667V0.75ZM7.08333 1.41667H6.33333V9.91667H7.08333H7.83333V1.41667H7.08333ZM0.75 9.91667H1.5V1.41667H0.75H0V9.91667H0.75ZM3.91667 13.0833V12.3333C2.58198 12.3333 1.5 11.2514 1.5 9.91667H0.75H0C0 12.0798 1.75355 13.8333 3.91667 13.8333V13.0833ZM7.08333 9.91667H6.33333C6.33333 11.2514 5.25136 12.3333 3.91667 12.3333V13.0833V13.8333C6.07978 13.8333 7.83333 12.0798 7.83333 9.91667H7.08333ZM1.41667 0.75V0C0.634263 0 0 0.634263 0 1.41667H0.75H1.5C1.5 1.46269 1.46269 1.5 1.41667 1.5V0.75ZM10.9093 4.13879L10.2598 3.76379L6.00979 11.125L6.65931 11.5L7.30883 11.875L11.5588 4.51379L10.9093 4.13879ZM12.8615 8.40908L12.4865 7.75956L5.12524 12.0096L5.50024 12.6591L5.87524 13.3086L13.2365 9.0586L12.8615 8.40908ZM13.1055 7.4984L12.4559 7.8734C12.4329 7.83354 12.4466 7.78257 12.4865 7.75956L12.8615 8.40908L13.2365 9.0586C13.914 8.6674 14.1462 7.80098 13.755 7.1234L13.1055 7.4984ZM7.01382 1.11993L6.63882 1.76945L10.2903 3.87763L10.6653 3.22811L11.0403 2.57859L7.38882 0.470411L7.01382 1.11993ZM6.41667 0.75V1.5C6.38287 1.5 6.35517 1.47979 6.34243 1.4542L7.01382 1.11993L7.6852 0.785658C7.45412 0.321519 6.97363 0 6.41667 0V0.75ZM7.01382 1.11993L6.34243 1.4542C6.33638 1.44206 6.33333 1.42864 6.33333 1.41667H7.08333H7.83333C7.83333 1.19148 7.78024 0.976535 7.6852 0.785658L7.01382 1.11993ZM10.9975 3.84722L10.3479 4.22222L12.4559 7.8734L13.1055 7.4984L13.755 7.1234L11.647 3.47222L10.9975 3.84722ZM10.6653 3.22811L10.2903 3.87763C10.261 3.86073 10.2471 3.82936 10.2489 3.80082L10.9975 3.84722L11.746 3.89362C11.7781 3.376 11.5227 2.85713 11.0403 2.57859L10.6653 3.22811ZM10.9975 3.84722L10.2489 3.80082C10.2497 3.78729 10.2538 3.77415 10.2598 3.76379L10.9093 4.13879L11.5588 4.51379C11.6714 4.31889 11.7328 4.10633 11.746 3.89362L10.9975 3.84722ZM5.08333 9.91667H4.33333C4.33333 10.1468 4.14679 10.3333 3.91667 10.3333V11.0833V11.8333C4.97521 11.8333 5.83333 10.9752 5.83333 9.91667H5.08333ZM3.91667 11.0833V10.3333C3.68655 10.3333 3.5 10.1468 3.5 9.91667H2.75H2C2 10.9752 2.85812 11.8333 3.91667 11.8333V11.0833ZM2.75 9.91667H3.5C3.5 9.68655 3.68655 9.5 3.91667 9.5V8.75V8C2.85812 8 2 8.85812 2 9.91667H2.75ZM3.91667 8.75V9.5C4.14679 9.5 4.33333 9.68655 4.33333 9.91667H5.08333H5.83333C5.83333 8.85812 4.97521 8 3.91667 8V8.75Z" fill="var(--stroke-0, #3F3A36)"/>
</svg>
