<svg preserveAspectRatio="none" width="100%" height="100%" overflow="visible" style="display: block;" viewBox="0 0 13.8333 13.8333" fill="none" xmlns="http://www.w3.org/2000/svg">
<path id="Icon" d="M2.08333 5.41667V5.25C2.08333 2.76472 4.24729 0.75 6.91667 0.75C9.58604 0.75 11.75 2.76472 11.75 5.25V5.41667M6.91667 12.0119V12.4167C6.91667 12.7849 7.21514 13.0833 7.58333 13.0833H8.91667C10.5735 13.0833 11.9167 11.7402 11.9167 10.0833M1.75 5.41667H2.75V9.75H1.75C1.19772 9.75 0.75 9.30228 0.75 8.75V6.41667C0.75 5.86438 1.19772 5.41667 1.75 5.41667ZM11.0833 5.41667H12.0833C12.6356 5.41667 13.0833 5.86438 13.0833 6.41667V8.75C13.0833 9.30228 12.6356 9.75 12.0833 9.75H11.0833V5.41667Z" stroke="var(--stroke-0, #3F3A36)" stroke-width="1.5" stroke-linecap="round" stroke-linejoin="round"/>
</svg>
