<svg preserveAspectRatio="none" width="100%" height="100%" overflow="visible" style="display: block;" viewBox="0 0 12.5004 13.6386" fill="none" xmlns="http://www.w3.org/2000/svg">
<path id="Icon" d="M5.57475 1.10794L5.09982 0.527468V0.527468L5.57475 1.10794ZM6.06962 0.774922L6.27277 1.49688L6.06962 0.774922ZM6.92566 1.10794L7.40058 0.527469L6.92566 1.10794ZM6.43078 0.774922L6.22763 1.49688L6.43078 0.774922ZM1.11421 12.816L1.4547 12.1477L1.11421 12.816ZM0.750201 11.822H1.5002H0.750201ZM0.822863 12.5246L1.49112 12.1841L0.822863 12.5246ZM11.6775 12.5246L11.0093 12.1841L11.6775 12.5246ZM11.3862 12.816L11.0457 12.1477L11.3862 12.816ZM11.7268 5.19627L12.4506 4.99946V4.99946L11.7268 5.19627ZM11.359 4.73521L10.8841 5.31568V5.31568L11.359 4.73521ZM11.6263 4.9841L11.0157 5.4196V5.4196L11.6263 4.9841ZM0.750201 5.56076H0.000201166H0.750201ZM0.773564 5.19627L0.0498466 4.99946V4.99946L0.773564 5.19627ZM1.14141 4.73521L1.61634 5.31568V5.31568L1.14141 4.73521ZM0.874107 4.9841L1.48471 5.4196V5.4196L0.874107 4.9841ZM8.41687 12.8886V13.6386C8.83108 13.6386 9.16687 13.3028 9.16687 12.8886H8.41687ZM4.08353 12.8886H3.33353C3.33353 13.3028 3.66932 13.6386 4.08353 13.6386V12.8886ZM11.7502 5.56076H11.0002V11.822H11.7502H12.5002V5.56076H11.7502ZM10.6835 12.8886V12.1386H1.81687V12.8886V13.6386H10.6835V12.8886ZM0.750201 11.822H1.5002V5.56076H0.750201H0.000201166V11.822H0.750201ZM1.14141 4.73521L1.61634 5.31568L6.04968 1.6884L5.57475 1.10794L5.09982 0.527468L0.666486 4.15474L1.14141 4.73521ZM6.92566 1.10794L6.45073 1.6884L10.8841 5.31568L11.359 4.73521L11.8339 4.15474L7.40058 0.527469L6.92566 1.10794ZM5.57475 1.10794L6.04968 1.6884C6.17854 1.58297 6.24401 1.53002 6.29286 1.49576C6.33396 1.46694 6.31889 1.48391 6.27277 1.49688L6.06962 0.774922L5.86648 0.0529588C5.68644 0.103618 5.54426 0.18865 5.43156 0.267687C5.32661 0.341294 5.2116 0.436013 5.09982 0.527468L5.57475 1.10794ZM6.92566 1.10794L7.40058 0.527469C7.2888 0.436013 7.17379 0.341294 7.06884 0.267687C6.95614 0.18865 6.81396 0.103618 6.63393 0.0529588L6.43078 0.774922L6.22763 1.49688C6.18151 1.48391 6.16644 1.46694 6.20755 1.49577C6.25639 1.53002 6.32186 1.58297 6.45073 1.6884L6.92566 1.10794ZM6.06962 0.774922L6.27277 1.49688C6.25801 1.50104 6.24239 1.50104 6.22763 1.49688L6.43078 0.774922L6.63393 0.0529588C6.38298 -0.0176529 6.11742 -0.0176529 5.86648 0.0529588L6.06962 0.774922ZM1.81687 12.8886V12.1386C1.61781 12.1386 1.51362 12.138 1.44008 12.132C1.37529 12.1267 1.40265 12.1212 1.4547 12.1477L1.11421 12.816L0.773715 13.4842C0.968369 13.5834 1.16038 13.6142 1.31793 13.6271C1.46672 13.6392 1.64256 13.6386 1.81687 13.6386V12.8886ZM0.750201 11.822H0.000201166C0.000201166 11.9963 -0.000382125 12.1721 0.0117748 12.3209C0.024647 12.4784 0.0554269 12.6705 0.154609 12.8651L0.822863 12.5246L1.49112 12.1841C1.51764 12.2362 1.51209 12.2635 1.50679 12.1988C1.50078 12.1252 1.5002 12.021 1.5002 11.822H0.750201ZM1.11421 12.816L1.4547 12.1477C1.47038 12.1557 1.48313 12.1684 1.49112 12.1841L0.822863 12.5246L0.154609 12.8651C0.29043 13.1317 0.507152 13.3484 0.773715 13.4842L1.11421 12.816ZM11.7502 11.822H11.0002C11.0002 12.021 10.9996 12.1252 10.9936 12.1988C10.9883 12.2635 10.9828 12.2362 11.0093 12.1841L11.6775 12.5246L12.3458 12.8651C12.445 12.6705 12.4758 12.4784 12.4886 12.3209C12.5008 12.1721 12.5002 11.9963 12.5002 11.822H11.7502ZM10.6835 12.8886V13.6386C10.8578 13.6386 11.0337 13.6392 11.1825 13.6271C11.34 13.6142 11.532 13.5834 11.7267 13.4842L11.3862 12.816L11.0457 12.1477C11.0977 12.1212 11.1251 12.1267 11.0603 12.132C10.9868 12.138 10.8826 12.1386 10.6835 12.1386V12.8886ZM11.6775 12.5246L11.0093 12.1841C11.0173 12.1684 11.03 12.1557 11.0457 12.1477L11.3862 12.816L11.7267 13.4842C11.9933 13.3484 12.21 13.1317 12.3458 12.8651L11.6775 12.5246ZM11.7502 5.56076H12.5002C12.5002 5.41613 12.5064 5.20466 12.4506 4.99946L11.7268 5.19627L11.0031 5.39308C10.9958 5.36627 10.9969 5.35327 10.9983 5.37935C10.999 5.39338 10.9996 5.41365 10.9999 5.44511C11.0002 5.47672 11.0002 5.51325 11.0002 5.56076H11.7502ZM11.359 4.73521L10.8841 5.31568C10.9208 5.34577 10.9491 5.3689 10.9734 5.38917C10.9975 5.40933 11.0128 5.42262 11.0232 5.43206C11.0426 5.44961 11.0318 5.44222 11.0157 5.4196L11.6263 4.9841L12.2369 4.5486C12.1134 4.37547 11.9459 4.24633 11.8339 4.15474L11.359 4.73521ZM11.7268 5.19627L12.4506 4.99946C12.4066 4.83772 12.3342 4.68507 12.2369 4.5486L11.6263 4.9841L11.0157 5.4196C11.01 5.41157 11.0057 5.40259 11.0031 5.39308L11.7268 5.19627ZM0.750201 5.56076H1.5002C1.5002 5.51325 1.50021 5.47672 1.50053 5.44511C1.50085 5.41365 1.50143 5.39338 1.50214 5.37935C1.50348 5.35327 1.50457 5.36627 1.49728 5.39308L0.773564 5.19627L0.0498466 4.99946C-0.00595552 5.20466 0.000201166 5.41613 0.000201166 5.56076H0.750201ZM1.14141 4.73521L0.666486 4.15474C0.554549 4.24633 0.38698 4.37547 0.2635 4.5486L0.874107 4.9841L1.48471 5.4196C1.46858 5.44222 1.45782 5.44961 1.47717 5.43206C1.48757 5.42262 1.50289 5.40933 1.52704 5.38917C1.5513 5.3689 1.57957 5.34576 1.61634 5.31568L1.14141 4.73521ZM0.773564 5.19627L1.49728 5.39308C1.49469 5.40259 1.49044 5.41157 1.48471 5.4196L0.874107 4.9841L0.2635 4.5486C0.166171 4.68507 0.0938313 4.83772 0.0498466 4.99946L0.773564 5.19627ZM4.7502 7.88863V8.63863H7.7502V7.88863V7.13863H4.7502V7.88863ZM8.41687 8.55529H7.66687V12.8886H8.41687H9.16687V8.55529H8.41687ZM8.41687 12.8886V12.1386H4.08353V12.8886V13.6386H8.41687V12.8886ZM4.08353 12.8886H4.83353V8.55529H4.08353H3.33353V12.8886H4.08353ZM7.7502 7.88863V8.63863C7.70418 8.63863 7.66687 8.60132 7.66687 8.55529H8.41687H9.16687C9.16687 7.77289 8.5326 7.13863 7.7502 7.13863V7.88863ZM4.7502 7.88863V7.13863C3.9678 7.13863 3.33353 7.77289 3.33353 8.55529H4.08353H4.83353C4.83353 8.60132 4.79623 8.63863 4.7502 8.63863V7.88863Z" fill="var(--stroke-0, #3F3A36)"/>
</svg>
